<?xml version="1.0" encoding="UTF-8"?>
<svg xmlns="http://www.w3.org/2000/svg" viewBox="0 0 512 512" width="512" height="512">
  <rect width="100%" height="100%" fill="white"/>
  <path d="M 270.0 245.5 Q 236.4 246.3 203.5 253.7" fill="none" stroke="black" stroke-width="1.20" opacity="0.6"/>
<path d="M 241.5 270.8 Q 258.6 264.5 272.4 252.4" fill="none" stroke="black" stroke-width="1.05" opacity="0.6"/>
<path d="M 201.2 264.8 Q 212.1 258.1 211.7 270.9" fill="none" stroke="black" stroke-width="1.26" opacity="0.6"/>
<path d="M 203.5 253.7 Q 239.1 268.6 270.0 245.5" fill="none" stroke="black" stroke-width="1.09" opacity="0.6"/>
<path d="M 203.0 260.8 Q 218.1 295.0 249.2 274.2" fill="none" stroke="black" stroke-width="1.03" opacity="0.6"/>
<path d="M 272.4 252.4 Q 251.0 251.6 241.5 270.8" fill="none" stroke="black" stroke-width="1.07" opacity="0.6"/>
<path d="M 278.0 258.3 Q 277.6 262.9 273.6 265.1" fill="none" stroke="black" stroke-width="1.21" opacity="0.6"/>
<path d="M 273.6 265.1 Q 269.8 257.8 278.0 258.3" fill="none" stroke="black" stroke-width="1.04" opacity="0.6"/>
<path d="M 234.8 254.2 Q 210.2 251.2 231.9 263.2" fill="none" stroke="black" stroke-width="1.17" opacity="0.6"/>
<path d="M 257.1 239.8 Q 261.0 263.0 270.0 241.2" fill="none" stroke="black" stroke-width="1.08" opacity="0.6"/>
<path d="M 248.9 252.5 Q 268.0 249.4 256.4 264.8" fill="none" stroke="black" stroke-width="1.25" opacity="0.6"/>
<path d="M 231.9 263.2 Q 211.2 251.5 234.8 254.2" fill="none" stroke="black" stroke-width="1.23" opacity="0.6"/>
<path d="M 231.1 209.0 Q 247.4 236.8 227.7 262.4" fill="none" stroke="black" stroke-width="1.26" opacity="0.6"/>
<path d="M 238.4 208.0 Q 221.4 245.9 259.1 263.5" fill="none" stroke="black" stroke-width="1.25" opacity="0.6"/>
<path d="M 235.2 208.8 Q 262.7 210.4 237.2 220.9" fill="none" stroke="black" stroke-width="1.26" opacity="0.6"/>
<path d="M 272.4 252.4 Q 246.9 244.7 241.5 270.8" fill="none" stroke="black" stroke-width="1.21" opacity="0.6"/>
<path d="M 278.0 258.3 Q 260.1 251.5 273.6 265.1" fill="none" stroke="black" stroke-width="1.21" opacity="0.6"/>
<path d="M 270.0 241.2 Q 261.3 260.6 257.1 239.8" fill="none" stroke="black" stroke-width="1.18" opacity="0.6"/>
<path d="M 256.4 264.8 Q 258.2 255.3 248.9 252.5" fill="none" stroke="black" stroke-width="1.22" opacity="0.6"/>
<path d="M 234.8 254.2 Q 214.8 252.7 231.9 263.2" fill="none" stroke="black" stroke-width="1.05" opacity="0.6"/>
<path d="M 248.9 252.5 Q 267.7 249.6 256.4 264.8" fill="none" stroke="black" stroke-width="1.16" opacity="0.6"/>
<path d="M 227.7 262.4 Q 231.0 235.8 231.1 209.0" fill="none" stroke="black" stroke-width="1.15" opacity="0.6"/>
<path d="M 211.7 270.9 Q 219.2 246.1 201.2 264.8" fill="none" stroke="black" stroke-width="1.06" opacity="0.6"/>
<path d="M 231.9 263.2 Q 216.3 253.2 234.8 254.2" fill="none" stroke="black" stroke-width="1.19" opacity="0.6"/>
<path d="M 259.1 263.5 Q 231.3 242.2 238.4 208.0" fill="none" stroke="black" stroke-width="1.12" opacity="0.6"/>
<path d="M 249.2 274.2 Q 220.2 287.9 203.0 260.8" fill="none" stroke="black" stroke-width="1.23" opacity="0.6"/>
<path d="M 256.4 264.8 Q 263.1 252.4 248.9 252.5" fill="none" stroke="black" stroke-width="1.22" opacity="0.6"/>
<path d="M 237.2 220.9 Q 249.2 212.7 235.2 208.8" fill="none" stroke="black" stroke-width="1.06" opacity="0.6"/>
<path d="M 223.7 243.2 Q 219.7 266.1 202.8 250.2" fill="none" stroke="black" stroke-width="0.88" opacity="0.6"/>
<circle cx="226.6" cy="279.6" r="17.2" fill="white" stroke="black" stroke-width="1.5"/>
  <circle cx="226.6" cy="279.6" r="10.3" fill="black" opacity="0.66"/>
<circle cx="232.2" cy="191.2" r="17.9" fill="white" stroke="black" stroke-width="1.5"/>
  <circle cx="232.2" cy="191.2" r="10.7" fill="black" opacity="0.71"/>
<circle cx="185.9" cy="255.8" r="17.8" fill="white" stroke="black" stroke-width="1.5"/>
  <circle cx="185.9" cy="255.8" r="10.7" fill="black" opacity="0.70"/>
<circle cx="287.9" cy="243.3" r="18.0" fill="white" stroke="black" stroke-width="1.5"/>
  <circle cx="287.9" cy="243.3" r="10.8" fill="black" opacity="0.71"/>
<circle cx="264.7" cy="278.7" r="16.2" fill="white" stroke="black" stroke-width="1.5"/>
  <circle cx="264.7" cy="278.7" r="9.7" fill="black" opacity="0.58"/>
<circle cx="240.0" cy="237.8" r="17.2" fill="white" stroke="black" stroke-width="1.5"/>
  <circle cx="240.0" cy="237.8" r="10.3" fill="black" opacity="0.66"/>
</svg>