<?xml version="1.0" encoding="UTF-8"?>
<svg xmlns="http://www.w3.org/2000/svg" viewBox="0 0 774 774" width="774" height="774">
  <rect width="100%" height="100%" fill="#fab387"/>
  <path d="M 579.8 342.1 Q 569.2 492.9 423.2 532.4" fill="none" stroke="#cba6f7" stroke-width="2.87" stroke-linecap="round"/>
<path d="M 571.0 332.4 Q 398.8 338.3 327.2 495.0" fill="none" stroke="#cba6f7" stroke-width="2.99" stroke-linecap="round"/>
<path d="M 563.8 312.5 Q 449.0 249.7 351.0 336.3" fill="none" stroke="#cba6f7" stroke-width="3.11" stroke-linecap="round"/>
<path d="M 482.1 241.6 Q 433.5 386.6 310.5 477.7" fill="none" stroke="#cba6f7" stroke-width="2.75" stroke-linecap="round"/>
<path d="M 464.9 223.2 Q 424.9 299.3 339.0 301.9" fill="none" stroke="#cba6f7" stroke-width="2.87" stroke-linecap="round"/>
<path d="M 326.6 543.8 Q 245.0 572.2 250.1 485.9" fill="none" stroke="#f5e0dc" stroke-width="2.51" stroke-linecap="round"/>
<path d="M 217.4 375.0 Q 269.9 353.9 243.4 304.0" fill="none" stroke="#585b70" stroke-width="2.63" stroke-linecap="round"/>
<path d="M 564.6 297.5 Q 472.0 202.1 347.0 247.7" fill="none" stroke="#cba6f7" stroke-width="2.99" stroke-linecap="round"/>
<circle cx="380.4" cy="194.3" r="53.1" fill="none" stroke="#cba6f7" stroke-width="14.2"/>
<circle cx="380.4" cy="194.3" r="35.4" fill="none" stroke="#cba6f7" stroke-width="14.2"/>
<circle cx="380.4" cy="194.3" r="17.7" fill="none" stroke="#cba6f7" stroke-width="14.2"/>
<circle cx="520.9" cy="188.1" r="56.7" fill="none" stroke="#cba6f7" stroke-width="15.1"/>
<circle cx="520.9" cy="188.1" r="37.8" fill="none" stroke="#cba6f7" stroke-width="15.1"/>
<circle cx="520.9" cy="188.1" r="18.9" fill="none" stroke="#cba6f7" stroke-width="15.1"/>
<circle cx="608.3" cy="307.5" r="39.8" fill="none" stroke="#cba6f7" stroke-width="8.0"/>
<circle cx="608.3" cy="307.5" r="29.8" fill="none" stroke="#cba6f7" stroke-width="8.0"/>
<circle cx="608.3" cy="307.5" r="19.9" fill="none" stroke="#cba6f7" stroke-width="8.0"/>
<circle cx="608.3" cy="307.5" r="9.9" fill="none" stroke="#cba6f7" stroke-width="8.0"/>
<circle cx="599.4" cy="452.7" r="38.8" fill="#cba6f7"/>
<circle cx="497.2" cy="542.4" r="31.1" fill="none" stroke="#585b70" stroke-width="12.4"/>
<circle cx="497.2" cy="542.4" r="15.5" fill="none" stroke="#585b70" stroke-width="12.4"/>
<circle cx="380.4" cy="584.5" r="67.5" fill="#f5e0dc"/>
<circle cx="270.5" cy="532.8" r="58.4" fill="none" stroke="#cba6f7" stroke-width="15.6"/>
<circle cx="270.5" cy="532.8" r="38.9" fill="none" stroke="#cba6f7" stroke-width="15.6"/>
<circle cx="270.5" cy="532.8" r="19.5" fill="none" stroke="#cba6f7" stroke-width="15.6"/>
<circle cx="192.8" cy="442.5" r="57.5" fill="none" stroke="#585b70" stroke-width="23.0"/>
<circle cx="192.8" cy="442.5" r="28.8" fill="none" stroke="#585b70" stroke-width="23.0"/>
<circle cx="269.3" cy="345.5" r="65.8" fill="none" stroke="#585b70" stroke-width="26.3"/>
<circle cx="269.3" cy="345.5" r="32.9" fill="none" stroke="#585b70" stroke-width="26.3"/>
<circle cx="270.3" cy="230.1" r="78.6" fill="#585b70"/>
</svg>