<?xml version="1.0" encoding="UTF-8"?>
<svg xmlns="http://www.w3.org/2000/svg" viewBox="0 0 774 774" width="774" height="774">
  <rect width="100%" height="100%" fill="#94e2d5"/>
  <path d="M 211.0 309.1 Q 380.7 413.0 560.6 328.2" fill="none" stroke="#f5e0dc" stroke-width="4.34" stroke-linecap="round"/>
<path d="M 173.2 344.9 Q 96.4 379.0 173.2 413.2" fill="none" stroke="#f5e0dc" stroke-width="4.42" stroke-linecap="round"/>
<path d="M 173.2 413.2 Q 195.0 312.6 173.2 212.1" fill="none" stroke="#cba6f7" stroke-width="4.09" stroke-linecap="round"/>
<path d="M 576.9 297.3 Q 527.8 262.9 506.8 206.8" fill="none" stroke="#f38ba8" stroke-width="4.00" stroke-linecap="round"/>
<path d="M 563.7 346.4 Q 541.5 435.9 463.0 387.4" fill="none" stroke="#f38ba8" stroke-width="4.45" stroke-linecap="round"/>
<path d="M 591.5 560.0 Q 571.0 378.8 490.9 214.9" fill="none" stroke="#313244" stroke-width="4.42" stroke-linecap="round"/>
<path d="M 557.2 598.4 Q 477.7 547.8 398.3 598.4" fill="none" stroke="#313244" stroke-width="4.67" stroke-linecap="round"/>
<path d="M 173.2 212.1 Q 200.0 381.5 173.2 551.0" fill="none" stroke="#f5e0dc" stroke-width="3.91" stroke-linecap="round"/>
<path d="M 204.2 199.0 Q 343.1 233.9 382.1 371.7" fill="none" stroke="#f5e0dc" stroke-width="4.69" stroke-linecap="round"/>
<path d="M 525.4 168.9 Q 541.2 136.2 557.0 168.9" fill="none" stroke="#f38ba8" stroke-width="4.26" stroke-linecap="round"/>
<path d="M 451.6 441.5 Q 500.0 514.5 571.1 565.6" fill="none" stroke="#f5e0dc" stroke-width="4.17" stroke-linecap="round"/>
<path d="M 399.8 452.0 Q 338.8 483.3 363.2 547.3" fill="none" stroke="#f5e0dc" stroke-width="4.30" stroke-linecap="round"/>
<path d="M 220.6 598.4 Q 254.7 582.8 288.9 598.4" fill="none" stroke="#cba6f7" stroke-width="3.98" stroke-linecap="round"/>
<path d="M 570.4 201.1 Q 359.6 354.1 206.7 564.9" fill="none" stroke="#cba6f7" stroke-width="3.68" stroke-linecap="round"/>
<path d="M 572.3 566.9 Q 461.5 552.8 451.6 441.5" fill="none" stroke="#f5e0dc" stroke-width="4.39" stroke-linecap="round"/>
<path d="M 339.5 205.6 Q 447.4 252.6 399.6 360.1" fill="none" stroke="#f38ba8" stroke-width="4.80" stroke-linecap="round"/>
<path d="M 364.6 168.9 Q 397.1 102.2 429.5 168.9" fill="none" stroke="#f38ba8" stroke-width="4.58" stroke-linecap="round"/>
<circle cx="602.6" cy="598.4" r="39.0" fill="none" stroke="#313244" stroke-width="10.4"/>
<circle cx="602.6" cy="598.4" r="26.0" fill="none" stroke="#313244" stroke-width="10.4"/>
<circle cx="602.6" cy="598.4" r="13.0" fill="none" stroke="#313244" stroke-width="10.4"/>
<circle cx="477.5" cy="168.9" r="38.4" fill="none" stroke="#f38ba8" stroke-width="15.3"/>
<circle cx="477.5" cy="168.9" r="19.2" fill="none" stroke="#f38ba8" stroke-width="15.3"/>
<circle cx="417.4" cy="406.0" r="43.8" fill="none" stroke="#f5e0dc" stroke-width="8.8"/>
<circle cx="417.4" cy="406.0" r="32.8" fill="none" stroke="#f5e0dc" stroke-width="8.8"/>
<circle cx="417.4" cy="406.0" r="21.9" fill="none" stroke="#f5e0dc" stroke-width="8.8"/>
<circle cx="417.4" cy="406.0" r="10.9" fill="none" stroke="#f5e0dc" stroke-width="8.8"/>
<circle cx="602.6" cy="598.4" r="34.3" fill="none" stroke="#313244" stroke-width="9.1"/>
<circle cx="602.6" cy="598.4" r="22.8" fill="none" stroke="#313244" stroke-width="9.1"/>
<circle cx="602.6" cy="598.4" r="11.4" fill="none" stroke="#313244" stroke-width="9.1"/>
<circle cx="173.2" cy="307.0" r="32.5" fill="none" stroke="#f5e0dc" stroke-width="8.7"/>
<circle cx="173.2" cy="307.0" r="21.7" fill="none" stroke="#f5e0dc" stroke-width="8.7"/>
<circle cx="173.2" cy="307.0" r="10.8" fill="none" stroke="#f5e0dc" stroke-width="8.7"/>
<circle cx="173.2" cy="450.6" r="37.5" fill="#cba6f7"/>
<circle cx="173.2" cy="168.9" r="43.2" fill="#f5e0dc"/>
<circle cx="602.6" cy="168.9" r="39.1" fill="none" stroke="#cba6f7" stroke-width="10.4"/>
<circle cx="602.6" cy="168.9" r="26.1" fill="none" stroke="#cba6f7" stroke-width="10.4"/>
<circle cx="602.6" cy="168.9" r="13.0" fill="none" stroke="#cba6f7" stroke-width="10.4"/>
<circle cx="343.6" cy="598.4" r="48.6" fill="none" stroke="#f5e0dc" stroke-width="9.7"/>
<circle cx="343.6" cy="598.4" r="36.5" fill="none" stroke="#f5e0dc" stroke-width="9.7"/>
<circle cx="343.6" cy="598.4" r="24.3" fill="none" stroke="#f5e0dc" stroke-width="9.7"/>
<circle cx="343.6" cy="598.4" r="12.2" fill="none" stroke="#f5e0dc" stroke-width="9.7"/>
<circle cx="602.6" cy="330.5" r="42.1" fill="#f38ba8"/>
<circle cx="602.6" cy="598.4" r="43.7" fill="#f5e0dc"/>
<circle cx="173.2" cy="598.4" r="47.4" fill="#cba6f7"/>
<circle cx="325.2" cy="168.9" r="39.4" fill="#f38ba8"/>
</svg>